# xmcd CD database file
#
# Track frame offsets:
#	150
#	17446
#	37312
#	60349
#	95103
#	119775
#	157345
#	188248
#	210441
#	233561
#	258510
#
# Disc length: 4141 seconds
#
# Revision: 0
# Processed by: cddbd v1.5.2PL0 Copyright (c) Steve Scherf et al.
# Submitted via: CDex 1.99.1
#
DISCID=9b102b0b
DTITLE=Burning Plague - Live At Last
DYEAR=1998
DGENRE=Blues
TTITLE0=Junior's Wailing
TTITLE1=Life Is Nonsense
TTITLE2=A38
TTITLE3=Rambling On My mind
TTITLE4=Dust My Blues
TTITLE5=Early Morning Call
TTITLE6=Key To The Highway
TTITLE7=The Sun Is Shining
TTITLE8=23 Years Ago
TTITLE9=Everything I Need
TTITLE10=Born In Epsom
EXTD=YEAR: 1998
EXTT0=
EXTT1=
EXTT2=
EXTT3=
EXTT4=
EXTT5=
EXTT6=
EXTT7=
EXTT8=
EXTT9=
EXTT10=
PLAYORDER=
